<svg xmlns="http://www.w3.org/2000/svg" xmlns:xlink="http://www.w3.org/1999/xlink" width="1024" zoomAndPan="magnify" viewBox="0 0 768 767.999994" height="1024" preserveAspectRatio="xMidYMid meet" version="1.0"><defs><g/><linearGradient x1="0" gradientTransform="matrix(0.75, 0, 0, 0.75, 0.000003, 0.00002)" y1="512" x2="1023.999957" gradientUnits="userSpaceOnUse" y2="512" id="a75482808e"><stop stop-opacity="1" stop-color="rgb(0%, 0%, 0%)" offset="0"/><stop stop-opacity="1" stop-color="rgb(0.175476%, 0.175476%, 0.175476%)" offset="0.0078125"/><stop stop-opacity="1" stop-color="rgb(0.526428%, 0.526428%, 0.526428%)" offset="0.015625"/><stop stop-opacity="1" stop-color="rgb(0.878906%, 0.878906%, 0.878906%)" offset="0.0234375"/><stop stop-opacity="1" stop-color="rgb(1.231384%, 1.231384%, 1.231384%)" offset="0.03125"/><stop stop-opacity="1" stop-color="rgb(1.583862%, 1.583862%, 1.583862%)" offset="0.0390625"/><stop stop-opacity="1" stop-color="rgb(1.93634%, 1.93634%, 1.93634%)" offset="0.046875"/><stop stop-opacity="1" stop-color="rgb(2.288818%, 2.288818%, 2.288818%)" offset="0.0546875"/><stop stop-opacity="1" stop-color="rgb(2.641296%, 2.641296%, 2.641296%)" offset="0.0625"/><stop stop-opacity="1" stop-color="rgb(2.993774%, 2.993774%, 2.993774%)" offset="0.0703125"/><stop stop-opacity="1" stop-color="rgb(3.346252%, 3.346252%, 3.346252%)" offset="0.078125"/><stop stop-opacity="1" stop-color="rgb(3.69873%, 3.69873%, 3.69873%)" offset="0.0859375"/><stop stop-opacity="1" stop-color="rgb(4.051208%, 4.051208%, 4.051208%)" offset="0.09375"/><stop stop-opacity="1" stop-color="rgb(4.402161%, 4.402161%, 4.402161%)" offset="0.101562"/><stop stop-opacity="1" stop-color="rgb(4.754639%, 4.754639%, 4.754639%)" offset="0.109375"/><stop stop-opacity="1" stop-color="rgb(5.107117%, 5.107117%, 5.107117%)" offset="0.117188"/><stop stop-opacity="1" stop-color="rgb(5.459595%, 5.459595%, 5.459595%)" offset="0.125"/><stop stop-opacity="1" stop-color="rgb(5.812073%, 5.812073%, 5.812073%)" offset="0.132812"/><stop stop-opacity="1" stop-color="rgb(6.164551%, 6.164551%, 6.164551%)" offset="0.140625"/><stop stop-opacity="1" stop-color="rgb(6.517029%, 6.517029%, 6.517029%)" offset="0.148438"/><stop stop-opacity="1" stop-color="rgb(6.869507%, 6.869507%, 6.869507%)" offset="0.15625"/><stop stop-opacity="1" stop-color="rgb(7.221985%, 7.221985%, 7.221985%)" offset="0.164062"/><stop stop-opacity="1" stop-color="rgb(7.574463%, 7.574463%, 7.574463%)" offset="0.171875"/><stop stop-opacity="1" stop-color="rgb(7.926941%, 7.926941%, 7.926941%)" offset="0.179688"/><stop stop-opacity="1" stop-color="rgb(8.277893%, 8.277893%, 8.277893%)" offset="0.1875"/><stop stop-opacity="1" stop-color="rgb(8.630371%, 8.630371%, 8.630371%)" offset="0.195312"/><stop stop-opacity="1" stop-color="rgb(8.982849%, 8.982849%, 8.982849%)" offset="0.203125"/><stop stop-opacity="1" stop-color="rgb(9.335327%, 9.335327%, 9.335327%)" offset="0.210938"/><stop stop-opacity="1" stop-color="rgb(9.687805%, 9.687805%, 9.687805%)" offset="0.21875"/><stop stop-opacity="1" stop-color="rgb(10.040283%, 10.040283%, 10.040283%)" offset="0.226562"/><stop stop-opacity="1" stop-color="rgb(10.392761%, 10.392761%, 10.392761%)" offset="0.234375"/><stop stop-opacity="1" stop-color="rgb(10.745239%, 10.745239%, 10.745239%)" offset="0.242188"/><stop stop-opacity="1" stop-color="rgb(11.097717%, 11.097717%, 11.097717%)" offset="0.25"/><stop stop-opacity="1" stop-color="rgb(11.450195%, 11.450195%, 11.450195%)" offset="0.257812"/><stop stop-opacity="1" stop-color="rgb(11.802673%, 11.802673%, 11.802673%)" offset="0.265625"/><stop stop-opacity="1" stop-color="rgb(12.155151%, 12.155151%, 12.155151%)" offset="0.273438"/><stop stop-opacity="1" stop-color="rgb(12.506104%, 12.506104%, 12.506104%)" offset="0.28125"/><stop stop-opacity="1" stop-color="rgb(12.858582%, 12.858582%, 12.858582%)" offset="0.289062"/><stop stop-opacity="1" stop-color="rgb(13.21106%, 13.21106%, 13.21106%)" offset="0.296875"/><stop stop-opacity="1" stop-color="rgb(13.563538%, 13.563538%, 13.563538%)" offset="0.304688"/><stop stop-opacity="1" stop-color="rgb(13.916016%, 13.916016%, 13.916016%)" offset="0.3125"/><stop stop-opacity="1" stop-color="rgb(14.268494%, 14.268494%, 14.268494%)" offset="0.320312"/><stop stop-opacity="1" stop-color="rgb(14.620972%, 14.620972%, 14.620972%)" offset="0.328125"/><stop stop-opacity="1" stop-color="rgb(14.97345%, 14.97345%, 14.97345%)" offset="0.335938"/><stop stop-opacity="1" stop-color="rgb(15.325928%, 15.325928%, 15.325928%)" offset="0.34375"/><stop stop-opacity="1" stop-color="rgb(15.678406%, 15.678406%, 15.678406%)" offset="0.351562"/><stop stop-opacity="1" stop-color="rgb(16.030884%, 16.030884%, 16.030884%)" offset="0.359375"/><stop stop-opacity="1" stop-color="rgb(16.381836%, 16.381836%, 16.381836%)" offset="0.367188"/><stop stop-opacity="1" stop-color="rgb(16.734314%, 16.734314%, 16.734314%)" offset="0.375"/><stop stop-opacity="1" stop-color="rgb(17.086792%, 17.086792%, 17.086792%)" offset="0.382812"/><stop stop-opacity="1" stop-color="rgb(17.43927%, 17.43927%, 17.43927%)" offset="0.390625"/><stop stop-opacity="1" stop-color="rgb(17.791748%, 17.791748%, 17.791748%)" offset="0.398438"/><stop stop-opacity="1" stop-color="rgb(18.144226%, 18.144226%, 18.144226%)" offset="0.40625"/><stop stop-opacity="1" stop-color="rgb(18.496704%, 18.496704%, 18.496704%)" offset="0.414062"/><stop stop-opacity="1" stop-color="rgb(18.849182%, 18.849182%, 18.849182%)" offset="0.421875"/><stop stop-opacity="1" stop-color="rgb(19.20166%, 19.20166%, 19.20166%)" offset="0.429688"/><stop stop-opacity="1" stop-color="rgb(19.554138%, 19.554138%, 19.554138%)" offset="0.4375"/><stop stop-opacity="1" stop-color="rgb(19.906616%, 19.906616%, 19.906616%)" offset="0.445312"/><stop stop-opacity="1" stop-color="rgb(20.257568%, 20.257568%, 20.257568%)" offset="0.453125"/><stop stop-opacity="1" stop-color="rgb(20.610046%, 20.610046%, 20.610046%)" offset="0.460938"/><stop stop-opacity="1" stop-color="rgb(20.962524%, 20.962524%, 20.962524%)" offset="0.46875"/><stop stop-opacity="1" stop-color="rgb(21.315002%, 21.315002%, 21.315002%)" offset="0.476562"/><stop stop-opacity="1" stop-color="rgb(21.66748%, 21.66748%, 21.66748%)" offset="0.484375"/><stop stop-opacity="1" stop-color="rgb(22.019958%, 22.019958%, 22.019958%)" offset="0.492188"/><stop stop-opacity="1" stop-color="rgb(22.372437%, 22.372437%, 22.372437%)" offset="0.5"/><stop stop-opacity="1" stop-color="rgb(22.724915%, 22.724915%, 22.724915%)" offset="0.507812"/><stop stop-opacity="1" stop-color="rgb(23.077393%, 23.077393%, 23.077393%)" offset="0.515625"/><stop stop-opacity="1" stop-color="rgb(23.429871%, 23.429871%, 23.429871%)" offset="0.523438"/><stop stop-opacity="1" stop-color="rgb(23.782349%, 23.782349%, 23.782349%)" offset="0.53125"/><stop stop-opacity="1" stop-color="rgb(24.134827%, 24.134827%, 24.134827%)" offset="0.539062"/><stop stop-opacity="1" stop-color="rgb(24.485779%, 24.485779%, 24.485779%)" offset="0.546875"/><stop stop-opacity="1" stop-color="rgb(24.838257%, 24.838257%, 24.838257%)" offset="0.554688"/><stop stop-opacity="1" stop-color="rgb(25.190735%, 25.190735%, 25.190735%)" offset="0.5625"/><stop stop-opacity="1" stop-color="rgb(25.543213%, 25.543213%, 25.543213%)" offset="0.570312"/><stop stop-opacity="1" stop-color="rgb(25.895691%, 25.895691%, 25.895691%)" offset="0.578125"/><stop stop-opacity="1" stop-color="rgb(26.248169%, 26.248169%, 26.248169%)" offset="0.585938"/><stop stop-opacity="1" stop-color="rgb(26.600647%, 26.600647%, 26.600647%)" offset="0.59375"/><stop stop-opacity="1" stop-color="rgb(26.953125%, 26.953125%, 26.953125%)" offset="0.601562"/><stop stop-opacity="1" stop-color="rgb(27.305603%, 27.305603%, 27.305603%)" offset="0.609375"/><stop stop-opacity="1" stop-color="rgb(27.658081%, 27.658081%, 27.658081%)" offset="0.617188"/><stop stop-opacity="1" stop-color="rgb(28.010559%, 28.010559%, 28.010559%)" offset="0.625"/><stop stop-opacity="1" stop-color="rgb(28.361511%, 28.361511%, 28.361511%)" offset="0.632812"/><stop stop-opacity="1" stop-color="rgb(28.713989%, 28.713989%, 28.713989%)" offset="0.640625"/><stop stop-opacity="1" stop-color="rgb(29.066467%, 29.066467%, 29.066467%)" offset="0.648438"/><stop stop-opacity="1" stop-color="rgb(29.418945%, 29.418945%, 29.418945%)" offset="0.65625"/><stop stop-opacity="1" stop-color="rgb(29.771423%, 29.771423%, 29.771423%)" offset="0.664062"/><stop stop-opacity="1" stop-color="rgb(30.123901%, 30.123901%, 30.123901%)" offset="0.671875"/><stop stop-opacity="1" stop-color="rgb(30.476379%, 30.476379%, 30.476379%)" offset="0.679688"/><stop stop-opacity="1" stop-color="rgb(30.828857%, 30.828857%, 30.828857%)" offset="0.6875"/><stop stop-opacity="1" stop-color="rgb(31.181335%, 31.181335%, 31.181335%)" offset="0.695312"/><stop stop-opacity="1" stop-color="rgb(31.533813%, 31.533813%, 31.533813%)" offset="0.703125"/><stop stop-opacity="1" stop-color="rgb(31.886292%, 31.886292%, 31.886292%)" offset="0.710938"/><stop stop-opacity="1" stop-color="rgb(32.237244%, 32.237244%, 32.237244%)" offset="0.71875"/><stop stop-opacity="1" stop-color="rgb(32.589722%, 32.589722%, 32.589722%)" offset="0.726562"/><stop stop-opacity="1" stop-color="rgb(32.9422%, 32.9422%, 32.9422%)" offset="0.734375"/><stop stop-opacity="1" stop-color="rgb(33.294678%, 33.294678%, 33.294678%)" offset="0.742188"/><stop stop-opacity="1" stop-color="rgb(33.647156%, 33.647156%, 33.647156%)" offset="0.75"/><stop stop-opacity="1" stop-color="rgb(33.999634%, 33.999634%, 33.999634%)" offset="0.757812"/><stop stop-opacity="1" stop-color="rgb(34.352112%, 34.352112%, 34.352112%)" offset="0.765625"/><stop stop-opacity="1" stop-color="rgb(34.70459%, 34.70459%, 34.70459%)" offset="0.773438"/><stop stop-opacity="1" stop-color="rgb(35.057068%, 35.057068%, 35.057068%)" offset="0.78125"/><stop stop-opacity="1" stop-color="rgb(35.409546%, 35.409546%, 35.409546%)" offset="0.789062"/><stop stop-opacity="1" stop-color="rgb(35.762024%, 35.762024%, 35.762024%)" offset="0.796875"/><stop stop-opacity="1" stop-color="rgb(36.114502%, 36.114502%, 36.114502%)" offset="0.804688"/><stop stop-opacity="1" stop-color="rgb(36.465454%, 36.465454%, 36.465454%)" offset="0.8125"/><stop stop-opacity="1" stop-color="rgb(36.817932%, 36.817932%, 36.817932%)" offset="0.820312"/><stop stop-opacity="1" stop-color="rgb(37.17041%, 37.17041%, 37.17041%)" offset="0.828125"/><stop stop-opacity="1" stop-color="rgb(37.522888%, 37.522888%, 37.522888%)" offset="0.835938"/><stop stop-opacity="1" stop-color="rgb(37.875366%, 37.875366%, 37.875366%)" offset="0.84375"/><stop stop-opacity="1" stop-color="rgb(38.227844%, 38.227844%, 38.227844%)" offset="0.851562"/><stop stop-opacity="1" stop-color="rgb(38.580322%, 38.580322%, 38.580322%)" offset="0.859375"/><stop stop-opacity="1" stop-color="rgb(38.9328%, 38.9328%, 38.9328%)" offset="0.867188"/><stop stop-opacity="1" stop-color="rgb(39.285278%, 39.285278%, 39.285278%)" offset="0.875"/><stop stop-opacity="1" stop-color="rgb(39.637756%, 39.637756%, 39.637756%)" offset="0.882812"/><stop stop-opacity="1" stop-color="rgb(39.990234%, 39.990234%, 39.990234%)" offset="0.890625"/><stop stop-opacity="1" stop-color="rgb(40.341187%, 40.341187%, 40.341187%)" offset="0.898438"/><stop stop-opacity="1" stop-color="rgb(40.693665%, 40.693665%, 40.693665%)" offset="0.90625"/><stop stop-opacity="1" stop-color="rgb(41.046143%, 41.046143%, 41.046143%)" offset="0.914062"/><stop stop-opacity="1" stop-color="rgb(41.398621%, 41.398621%, 41.398621%)" offset="0.921875"/><stop stop-opacity="1" stop-color="rgb(41.751099%, 41.751099%, 41.751099%)" offset="0.929688"/><stop stop-opacity="1" stop-color="rgb(42.103577%, 42.103577%, 42.103577%)" offset="0.9375"/><stop stop-opacity="1" stop-color="rgb(42.456055%, 42.456055%, 42.456055%)" offset="0.945312"/><stop stop-opacity="1" stop-color="rgb(42.808533%, 42.808533%, 42.808533%)" offset="0.953125"/><stop stop-opacity="1" stop-color="rgb(43.161011%, 43.161011%, 43.161011%)" offset="0.960938"/><stop stop-opacity="1" stop-color="rgb(43.513489%, 43.513489%, 43.513489%)" offset="0.96875"/><stop stop-opacity="1" stop-color="rgb(43.865967%, 43.865967%, 43.865967%)" offset="0.976562"/><stop stop-opacity="1" stop-color="rgb(44.216919%, 44.216919%, 44.216919%)" offset="0.984375"/><stop stop-opacity="1" stop-color="rgb(44.569397%, 44.569397%, 44.569397%)" offset="0.992188"/><stop stop-opacity="1" stop-color="rgb(44.921875%, 44.921875%, 44.921875%)" offset="1"/></linearGradient><clipPath id="07bbdcf518"><path d="M 202.855469 557.523438 L 289.773438 557.523438 L 289.773438 644.441406 L 202.855469 644.441406 Z M 202.855469 557.523438 " clip-rule="nonzero"/></clipPath><clipPath id="ac84f4ae22"><path d="M 219.402344 557.523438 L 273.226562 557.523438 C 277.613281 557.523438 281.824219 559.265625 284.925781 562.371094 C 288.027344 565.472656 289.773438 569.679688 289.773438 574.070312 L 289.773438 627.894531 C 289.773438 632.285156 288.027344 636.492188 284.925781 639.59375 C 281.824219 642.699219 277.613281 644.441406 273.226562 644.441406 L 219.402344 644.441406 C 215.011719 644.441406 210.804688 642.699219 207.703125 639.59375 C 204.597656 636.492188 202.855469 632.285156 202.855469 627.894531 L 202.855469 574.070312 C 202.855469 569.679688 204.597656 565.472656 207.703125 562.371094 C 210.804688 559.265625 215.011719 557.523438 219.402344 557.523438 Z M 219.402344 557.523438 " clip-rule="nonzero"/></clipPath><clipPath id="31d0d91968"><path d="M 294.695312 557.523438 L 381.613281 557.523438 L 381.613281 644.441406 L 294.695312 644.441406 Z M 294.695312 557.523438 " clip-rule="nonzero"/></clipPath><clipPath id="6f9d34d5d0"><path d="M 311.242188 557.523438 L 365.070312 557.523438 C 369.457031 557.523438 373.664062 559.265625 376.769531 562.371094 C 379.871094 565.472656 381.613281 569.679688 381.613281 574.070312 L 381.613281 627.894531 C 381.613281 632.285156 379.871094 636.492188 376.769531 639.59375 C 373.664062 642.699219 369.457031 644.441406 365.070312 644.441406 L 311.242188 644.441406 C 306.855469 644.441406 302.644531 642.699219 299.542969 639.59375 C 296.441406 636.492188 294.695312 632.285156 294.695312 627.894531 L 294.695312 574.070312 C 294.695312 569.679688 296.441406 565.472656 299.542969 562.371094 C 302.644531 559.265625 306.855469 557.523438 311.242188 557.523438 Z M 311.242188 557.523438 " clip-rule="nonzero"/></clipPath><clipPath id="0a835c9bb2"><path d="M 386.539062 557.523438 L 473.457031 557.523438 L 473.457031 644.441406 L 386.539062 644.441406 Z M 386.539062 557.523438 " clip-rule="nonzero"/></clipPath><clipPath id="fb290f554d"><path d="M 403.085938 557.523438 L 456.910156 557.523438 C 461.296875 557.523438 465.507812 559.265625 468.609375 562.371094 C 471.714844 565.472656 473.457031 569.679688 473.457031 574.070312 L 473.457031 627.894531 C 473.457031 632.285156 471.714844 636.492188 468.609375 639.59375 C 465.507812 642.699219 461.296875 644.441406 456.910156 644.441406 L 403.085938 644.441406 C 398.695312 644.441406 394.488281 642.699219 391.386719 639.59375 C 388.28125 636.492188 386.539062 632.285156 386.539062 627.894531 L 386.539062 574.070312 C 386.539062 569.679688 388.28125 565.472656 391.386719 562.371094 C 394.488281 559.265625 398.695312 557.523438 403.085938 557.523438 Z M 403.085938 557.523438 " clip-rule="nonzero"/></clipPath><clipPath id="421cbb67f8"><path d="M 478.382812 557.523438 L 565.296875 557.523438 L 565.296875 644.441406 L 478.382812 644.441406 Z M 478.382812 557.523438 " clip-rule="nonzero"/></clipPath><clipPath id="26e11ccb78"><path d="M 494.925781 557.523438 L 548.753906 557.523438 C 553.140625 557.523438 557.347656 559.265625 560.453125 562.371094 C 563.554688 565.472656 565.296875 569.679688 565.296875 574.070312 L 565.296875 627.894531 C 565.296875 632.285156 563.554688 636.492188 560.453125 639.59375 C 557.347656 642.699219 553.140625 644.441406 548.753906 644.441406 L 494.925781 644.441406 C 490.539062 644.441406 486.328125 642.699219 483.226562 639.59375 C 480.125 636.492188 478.382812 632.285156 478.382812 627.894531 L 478.382812 574.070312 C 478.382812 569.679688 480.125 565.472656 483.226562 562.371094 C 486.328125 559.265625 490.539062 557.523438 494.925781 557.523438 Z M 494.925781 557.523438 " clip-rule="nonzero"/></clipPath><clipPath id="9528789643"><path d="M 110.859375 557.523438 L 197.777344 557.523438 L 197.777344 644.441406 L 110.859375 644.441406 Z M 110.859375 557.523438 " clip-rule="nonzero"/></clipPath><clipPath id="c1e94de59b"><path d="M 127.40625 557.523438 L 181.230469 557.523438 C 185.621094 557.523438 189.828125 559.265625 192.929688 562.371094 C 196.035156 565.472656 197.777344 569.679688 197.777344 574.070312 L 197.777344 627.894531 C 197.777344 632.285156 196.035156 636.492188 192.929688 639.59375 C 189.828125 642.699219 185.621094 644.441406 181.230469 644.441406 L 127.40625 644.441406 C 123.015625 644.441406 118.808594 642.699219 115.707031 639.59375 C 112.601562 636.492188 110.859375 632.285156 110.859375 627.894531 L 110.859375 574.070312 C 110.859375 569.679688 112.601562 565.472656 115.707031 562.371094 C 118.808594 559.265625 123.015625 557.523438 127.40625 557.523438 Z M 127.40625 557.523438 " clip-rule="nonzero"/></clipPath><clipPath id="e109c1b08e"><path d="M 570.222656 557.523438 L 657.140625 557.523438 L 657.140625 644.441406 L 570.222656 644.441406 Z M 570.222656 557.523438 " clip-rule="nonzero"/></clipPath><clipPath id="c841b9698a"><path d="M 586.769531 557.523438 L 640.59375 557.523438 C 644.984375 557.523438 649.191406 559.265625 652.292969 562.371094 C 655.398438 565.472656 657.140625 569.679688 657.140625 574.070312 L 657.140625 627.894531 C 657.140625 632.285156 655.398438 636.492188 652.292969 639.59375 C 649.191406 642.699219 644.984375 644.441406 640.59375 644.441406 L 586.769531 644.441406 C 582.378906 644.441406 578.171875 642.699219 575.070312 639.59375 C 571.964844 636.492188 570.222656 632.285156 570.222656 627.894531 L 570.222656 574.070312 C 570.222656 569.679688 571.964844 565.472656 575.070312 562.371094 C 578.171875 559.265625 582.378906 557.523438 586.769531 557.523438 Z M 586.769531 557.523438 " clip-rule="nonzero"/></clipPath><clipPath id="9ddebcc261"><path d="M 102.070312 108.652344 L 666 108.652344 L 666 228.722656 L 102.070312 228.722656 Z M 102.070312 108.652344 " clip-rule="nonzero"/></clipPath><clipPath id="d10bc1de06"><path d="M 162.105469 108.652344 L 605.894531 108.652344 C 639.050781 108.652344 665.929688 135.53125 665.929688 168.6875 C 665.929688 201.84375 639.050781 228.722656 605.894531 228.722656 L 162.105469 228.722656 C 128.949219 228.722656 102.070312 201.84375 102.070312 168.6875 C 102.070312 135.53125 128.949219 108.652344 162.105469 108.652344 Z M 162.105469 108.652344 " clip-rule="nonzero"/></clipPath><clipPath id="2411957898"><path d="M 102.070312 251.386719 L 666 251.386719 L 666 371.453125 L 102.070312 371.453125 Z M 102.070312 251.386719 " clip-rule="nonzero"/></clipPath><clipPath id="3b84893854"><path d="M 162.105469 251.386719 L 605.894531 251.386719 C 639.050781 251.386719 665.929688 278.261719 665.929688 311.417969 C 665.929688 344.574219 639.050781 371.453125 605.894531 371.453125 L 162.105469 371.453125 C 128.949219 371.453125 102.070312 344.574219 102.070312 311.417969 C 102.070312 278.261719 128.949219 251.386719 162.105469 251.386719 Z M 162.105469 251.386719 " clip-rule="nonzero"/></clipPath><clipPath id="608d48686b"><path d="M 102.070312 393.953125 L 666 393.953125 L 666 514.023438 L 102.070312 514.023438 Z M 102.070312 393.953125 " clip-rule="nonzero"/></clipPath><clipPath id="b47b2a4f51"><path d="M 162.105469 393.953125 L 605.894531 393.953125 C 639.050781 393.953125 665.929688 420.832031 665.929688 453.988281 C 665.929688 487.144531 639.050781 514.023438 605.894531 514.023438 L 162.105469 514.023438 C 128.949219 514.023438 102.070312 487.144531 102.070312 453.988281 C 102.070312 420.832031 128.949219 393.953125 162.105469 393.953125 Z M 162.105469 393.953125 " clip-rule="nonzero"/></clipPath></defs><rect x="-76.8" width="921.6" fill="#ffffff" y="-76.799999" height="921.599993" fill-opacity="1"/><rect x="-76.8" fill="url(#a75482808e)" width="921.6" y="-76.799999" height="921.599993"/><g clip-path="url(#07bbdcf518)"><g clip-path="url(#ac84f4ae22)"><path fill="#00bf63" d="M 202.855469 557.523438 L 289.773438 557.523438 L 289.773438 644.441406 L 202.855469 644.441406 Z M 202.855469 557.523438 " fill-opacity="1" fill-rule="nonzero"/></g></g><g clip-path="url(#31d0d91968)"><g clip-path="url(#6f9d34d5d0)"><path fill="#ff5757" d="M 294.695312 557.523438 L 381.613281 557.523438 L 381.613281 644.441406 L 294.695312 644.441406 Z M 294.695312 557.523438 " fill-opacity="1" fill-rule="nonzero"/></g></g><g clip-path="url(#0a835c9bb2)"><g clip-path="url(#fb290f554d)"><path fill="#00bf63" d="M 386.539062 557.523438 L 473.457031 557.523438 L 473.457031 644.441406 L 386.539062 644.441406 Z M 386.539062 557.523438 " fill-opacity="1" fill-rule="nonzero"/></g></g><g clip-path="url(#421cbb67f8)"><g clip-path="url(#26e11ccb78)"><path fill="#00bf63" d="M 478.382812 557.523438 L 565.296875 557.523438 L 565.296875 644.441406 L 478.382812 644.441406 Z M 478.382812 557.523438 " fill-opacity="1" fill-rule="nonzero"/></g></g><g clip-path="url(#9528789643)"><g clip-path="url(#c1e94de59b)"><path fill="#00bf63" d="M 110.859375 557.523438 L 197.777344 557.523438 L 197.777344 644.441406 L 110.859375 644.441406 Z M 110.859375 557.523438 " fill-opacity="1" fill-rule="nonzero"/></g></g><g clip-path="url(#e109c1b08e)"><g clip-path="url(#c841b9698a)"><path fill="#00bf63" d="M 570.222656 557.523438 L 657.140625 557.523438 L 657.140625 644.441406 L 570.222656 644.441406 Z M 570.222656 557.523438 " fill-opacity="1" fill-rule="nonzero"/></g></g><g clip-path="url(#9ddebcc261)"><g clip-path="url(#d10bc1de06)"><path fill="#00bf63" d="M 102.070312 108.652344 L 665.835938 108.652344 L 665.835938 228.722656 L 102.070312 228.722656 Z M 102.070312 108.652344 " fill-opacity="1" fill-rule="nonzero"/></g></g><g clip-path="url(#2411957898)"><g clip-path="url(#3b84893854)"><path fill="#00bf63" d="M 102.070312 251.386719 L 665.835938 251.386719 L 665.835938 371.453125 L 102.070312 371.453125 Z M 102.070312 251.386719 " fill-opacity="1" fill-rule="nonzero"/></g></g><g clip-path="url(#608d48686b)"><g clip-path="url(#b47b2a4f51)"><path fill="#00bf63" d="M 102.070312 393.953125 L 665.835938 393.953125 L 665.835938 514.023438 L 102.070312 514.023438 Z M 102.070312 393.953125 " fill-opacity="1" fill-rule="nonzero"/></g></g><path fill="#000000" d="M 179.328125 263.617188 C 150.542969 261.777344 126.710938 285.609375 128.550781 314.394531 C 130.074219 338.1875 149.292969 357.40625 173.085938 358.929688 C 201.871094 360.769531 225.703125 336.941406 223.863281 308.152344 C 222.339844 284.359375 203.121094 265.140625 179.328125 263.617188 Z M 197.828125 334.96875 C 199.707031 328.515625 200.828125 321.09375 200.980469 313.109375 L 220.242188 313.109375 C 219.820312 323.347656 215.890625 332.6875 209.625 339.972656 C 206.75 337.960938 202.734375 336.257812 197.828125 334.96875 Z M 142.789062 339.972656 C 136.523438 332.6875 132.59375 323.347656 132.171875 313.109375 L 151.433594 313.109375 C 151.585938 321.09375 152.707031 328.515625 154.585938 334.96875 C 149.679688 336.257812 145.660156 337.960938 142.789062 339.972656 Z M 154.574219 287.609375 C 152.699219 294.054688 151.582031 301.464844 151.433594 309.4375 L 132.171875 309.4375 C 132.589844 299.25 136.484375 289.949219 142.699219 282.675781 C 145.621094 284.660156 149.667969 286.335938 154.574219 287.609375 Z M 174.371094 309.4375 L 155.105469 309.4375 C 155.265625 301.835938 156.394531 294.660156 158.242188 288.453125 C 163.207031 289.457031 168.710938 290.023438 174.371094 290.128906 Z M 174.371094 313.109375 L 174.371094 332.421875 C 168.699219 332.523438 163.195312 333.101562 158.25 334.117188 C 156.398438 327.902344 155.265625 320.722656 155.105469 313.109375 Z M 178.042969 313.109375 L 197.304688 313.109375 C 197.148438 320.722656 196.015625 327.902344 194.164062 334.117188 C 189.214844 333.101562 183.710938 332.523438 178.042969 332.421875 Z M 178.042969 309.4375 L 178.042969 290.128906 C 183.699219 290.023438 189.207031 289.453125 194.171875 288.453125 C 196.019531 294.660156 197.148438 301.835938 197.304688 309.4375 Z M 178.042969 286.453125 L 178.042969 267.378906 C 184.074219 268.523438 189.472656 275.222656 193.011719 284.945312 C 188.398438 285.84375 183.292969 286.355469 178.042969 286.453125 Z M 174.371094 267.378906 L 174.371094 286.453125 C 169.121094 286.355469 164.015625 285.84375 159.402344 284.945312 C 162.941406 275.222656 168.335938 268.523438 174.371094 267.378906 Z M 174.371094 336.09375 L 174.371094 355.171875 C 168.339844 354.027344 162.945312 347.335938 159.40625 337.625 C 164.007812 336.710938 169.109375 336.191406 174.371094 336.09375 Z M 178.042969 355.167969 L 178.042969 336.09375 C 183.300781 336.191406 188.402344 336.710938 193.003906 337.625 C 189.464844 347.335938 184.074219 354.027344 178.042969 355.167969 Z M 200.980469 309.4375 C 200.828125 301.464844 199.710938 294.054688 197.839844 287.609375 C 202.746094 286.335938 206.792969 284.660156 209.714844 282.675781 C 215.925781 289.945312 219.820312 299.25 220.242188 309.4375 Z M 207.175781 279.9375 C 204.601562 281.566406 201.003906 283.003906 196.71875 284.105469 C 194.414062 277.589844 191.285156 272.285156 187.597656 268.691406 C 195.09375 270.699219 201.808594 274.636719 207.175781 279.9375 Z M 155.695312 284.105469 C 151.410156 283.003906 147.8125 281.566406 145.238281 279.9375 C 150.605469 274.636719 157.320312 270.699219 164.816406 268.691406 C 161.128906 272.285156 158 277.589844 155.695312 284.105469 Z M 145.332031 342.699219 C 147.847656 341.046875 151.417969 339.585938 155.707031 338.472656 C 158.011719 344.976562 161.136719 350.265625 164.816406 353.855469 C 157.363281 351.859375 150.683594 347.953125 145.332031 342.699219 Z M 196.707031 338.472656 C 200.992188 339.585938 204.566406 341.046875 207.082031 342.699219 C 201.730469 347.957031 195.050781 351.859375 187.597656 353.855469 C 191.277344 350.265625 194.402344 344.976562 196.707031 338.472656 Z M 196.707031 338.472656 " fill-opacity="1" fill-rule="nonzero"/><g fill="#000000" fill-opacity="1"><g transform="translate(239.655032, 332.186182)"><g><path d="M 28.328125 -14.921875 C 28.328125 -12.546875 28.066406 -10.394531 27.546875 -8.46875 C 27.023438 -6.539062 26.210938 -4.898438 25.109375 -3.546875 C 24.003906 -2.191406 22.609375 -1.140625 20.921875 -0.390625 C 19.234375 0.359375 17.234375 0.734375 14.921875 0.734375 C 12.585938 0.734375 10.59375 0.359375 8.9375 -0.390625 C 7.28125 -1.140625 5.898438 -2.191406 4.796875 -3.546875 C 3.691406 -4.898438 2.878906 -6.550781 2.359375 -8.5 C 1.835938 -10.445312 1.578125 -12.609375 1.578125 -14.984375 L 1.578125 -41.875 L 8.21875 -41.875 L 8.21875 -14.921875 C 8.21875 -13.867188 8.289062 -12.78125 8.4375 -11.65625 C 8.59375 -10.539062 8.898438 -9.5 9.359375 -8.53125 C 9.816406 -7.570312 10.492188 -6.785156 11.390625 -6.171875 C 12.285156 -5.566406 13.460938 -5.265625 14.921875 -5.265625 C 16.359375 -5.265625 17.523438 -5.566406 18.421875 -6.171875 C 19.316406 -6.785156 20.007812 -7.5625 20.5 -8.5 C 21 -9.445312 21.320312 -10.488281 21.46875 -11.625 C 21.613281 -12.769531 21.6875 -13.867188 21.6875 -14.921875 L 21.6875 -41.875 L 28.328125 -41.875 Z M 28.328125 -14.921875 "/></g></g></g><g fill="#000000" fill-opacity="1"><g transform="translate(275.524781, 332.186182)"><g><path d="M 1.578125 -29.90625 L 8.21875 -29.90625 L 8.21875 -27.21875 C 9.476562 -28.34375 10.753906 -29.1875 12.046875 -29.75 C 13.335938 -30.320312 14.820312 -30.609375 16.5 -30.609375 C 18.414062 -30.609375 20.195312 -30.21875 21.84375 -29.4375 C 23.5 -28.65625 24.914062 -27.570312 26.09375 -26.1875 C 27.269531 -24.8125 28.195312 -23.15625 28.875 -21.21875 C 29.5625 -19.289062 29.90625 -17.191406 29.90625 -14.921875 C 29.90625 -12.628906 29.5625 -10.519531 28.875 -8.59375 C 28.195312 -6.675781 27.269531 -5.023438 26.09375 -3.640625 C 24.914062 -2.265625 23.5 -1.191406 21.84375 -0.421875 C 20.195312 0.347656 18.414062 0.734375 16.5 0.734375 C 14.820312 0.734375 13.335938 0.4375 12.046875 -0.15625 C 10.753906 -0.757812 9.476562 -1.628906 8.21875 -2.765625 L 8.21875 11.96875 L 1.578125 11.96875 Z M 8.21875 -8.015625 C 9.007812 -7.140625 10.019531 -6.460938 11.25 -5.984375 C 12.476562 -5.503906 13.660156 -5.265625 14.796875 -5.265625 C 17.296875 -5.265625 19.332031 -6.148438 20.90625 -7.921875 C 22.476562 -9.703125 23.265625 -12.035156 23.265625 -14.921875 C 23.265625 -17.804688 22.476562 -20.144531 20.90625 -21.9375 C 19.332031 -23.738281 17.296875 -24.640625 14.796875 -24.640625 C 13.660156 -24.640625 12.476562 -24.410156 11.25 -23.953125 C 10.019531 -23.492188 9.007812 -22.828125 8.21875 -21.953125 Z M 8.21875 -8.015625 "/></g></g></g><g fill="#000000" fill-opacity="1"><g transform="translate(311.39453, 332.186182)"><g><path d="M 30.234375 -9.53125 C 29.890625 -6.382812 28.648438 -3.882812 26.515625 -2.03125 C 24.390625 -0.1875 21.734375 0.734375 18.546875 0.734375 C 16.796875 0.734375 15.191406 0.445312 13.734375 -0.125 C 12.273438 -0.707031 11.03125 -1.507812 10 -2.53125 C 8.976562 -3.5625 8.179688 -4.796875 7.609375 -6.234375 C 7.046875 -7.679688 6.765625 -9.257812 6.765625 -10.96875 L 6.765625 -23.90625 L 0 -23.90625 L 0 -29.90625 L 6.765625 -29.90625 L 6.765625 -41.875 L 13.40625 -41.875 L 13.40625 -29.90625 L 25.953125 -29.90625 L 25.953125 -23.90625 L 13.40625 -23.90625 L 13.40625 -10.96875 C 13.40625 -9.050781 13.875 -7.617188 14.8125 -6.671875 C 15.757812 -5.734375 17.003906 -5.265625 18.546875 -5.265625 C 20.429688 -5.265625 21.832031 -5.804688 22.75 -6.890625 C 23.664062 -7.984375 24.210938 -9.300781 24.390625 -10.84375 Z M 30.234375 -9.53125 "/></g></g></g><g fill="#000000" fill-opacity="1"><g transform="translate(347.26428, 332.186182)"><g><path d="M 19 -33.796875 L 10.90625 -33.796875 L 10.90625 -41.875 L 19 -41.875 Z M 25.09375 0 L 5 0 L 5 -5.96875 L 11.609375 -5.96875 L 11.609375 -23.90625 L 5 -23.90625 L 5 -29.90625 L 18.265625 -29.90625 L 18.265625 -5.96875 L 25.09375 -5.96875 Z M 25.09375 0 "/></g></g></g><g fill="#000000" fill-opacity="1"><g transform="translate(383.134029, 332.186182)"><g><path d="M 29.90625 0 L 23.265625 0 L 23.265625 -20.5 C 23.265625 -21.914062 23.117188 -22.957031 22.828125 -23.625 C 22.535156 -24.300781 22.03125 -24.640625 21.3125 -24.640625 C 19.976562 -24.640625 19.132812 -23.894531 18.78125 -22.40625 C 18.4375 -20.925781 18.265625 -18.765625 18.265625 -15.921875 L 18.265625 0 L 11.609375 0 L 11.609375 -20.5 C 11.609375 -21.914062 11.457031 -22.957031 11.15625 -23.625 C 10.863281 -24.300781 10.34375 -24.640625 9.59375 -24.640625 C 8.289062 -24.640625 7.472656 -23.894531 7.140625 -22.40625 C 6.804688 -20.925781 6.640625 -18.765625 6.640625 -15.921875 L 6.640625 0 L 0 0 L 0 -29.90625 L 6.703125 -29.90625 L 6.703125 -25.578125 C 7.171875 -27.222656 7.863281 -28.472656 8.78125 -29.328125 C 9.707031 -30.179688 10.941406 -30.609375 12.484375 -30.609375 C 13.765625 -30.609375 14.835938 -30.21875 15.703125 -29.4375 C 16.566406 -28.65625 17.160156 -27.582031 17.484375 -26.21875 C 18.234375 -27.71875 19.007812 -28.820312 19.8125 -29.53125 C 20.613281 -30.25 21.847656 -30.609375 23.515625 -30.609375 C 25.578125 -30.609375 27.15625 -29.851562 28.25 -28.34375 C 29.351562 -26.84375 29.90625 -24.5625 29.90625 -21.5 Z M 29.90625 0 "/></g></g></g><g fill="#000000" fill-opacity="1"><g transform="translate(419.00379, 332.186182)"><g><path d="M 6.09375 -12.421875 C 6.414062 -10.367188 7.394531 -8.660156 9.03125 -7.296875 C 10.664062 -5.941406 12.863281 -5.265625 15.625 -5.265625 C 17.789062 -5.265625 19.671875 -5.597656 21.265625 -6.265625 C 22.859375 -6.941406 24.226562 -7.835938 25.375 -8.953125 L 28.78125 -4.265625 C 26.851562 -2.335938 24.816406 -1.019531 22.671875 -0.3125 C 20.523438 0.382812 18.175781 0.734375 15.625 0.734375 C 13.3125 0.734375 11.160156 0.347656 9.171875 -0.421875 C 7.179688 -1.191406 5.457031 -2.265625 4 -3.640625 C 2.550781 -5.023438 1.414062 -6.664062 0.59375 -8.5625 C -0.226562 -10.46875 -0.640625 -12.585938 -0.640625 -14.921875 C -0.640625 -17.191406 -0.257812 -19.28125 0.5 -21.1875 C 1.257812 -23.101562 2.328125 -24.757812 3.703125 -26.15625 C 5.085938 -27.5625 6.738281 -28.65625 8.65625 -29.4375 C 10.582031 -30.21875 12.710938 -30.609375 15.046875 -30.609375 C 17.460938 -30.609375 19.65625 -30.195312 21.625 -29.375 C 23.59375 -28.550781 25.273438 -27.359375 26.671875 -25.796875 C 28.078125 -24.234375 29.175781 -22.320312 29.96875 -20.0625 C 30.757812 -17.8125 31.15625 -15.265625 31.15625 -12.421875 Z M 23.65625 -18.265625 C 23.3125 -20.179688 22.3125 -21.722656 20.65625 -22.890625 C 19.007812 -24.054688 17.140625 -24.640625 15.046875 -24.640625 C 12.953125 -24.640625 11.070312 -24.054688 9.40625 -22.890625 C 7.738281 -21.722656 6.734375 -20.179688 6.390625 -18.265625 Z M 23.65625 -18.265625 "/></g></g></g><g fill="#000000" fill-opacity="1"><g transform="translate(454.87355, 332.186182)"><g/></g></g><g fill="#000000" fill-opacity="1"><g transform="translate(490.74331, 332.186182)"><g><path d="M 28.328125 0 L 21.6875 0 L 21.6875 -28.328125 L 17.484375 -13.28125 L 12.359375 -13.28125 L 8.21875 -28.328125 L 8.21875 0 L 1.578125 0 L 1.578125 -41.875 L 9.46875 -41.875 L 14.921875 -22.9375 L 20.375 -41.875 L 28.328125 -41.875 Z M 28.328125 0 "/></g></g></g><g fill="#000000" fill-opacity="1"><g transform="translate(526.61307, 332.186182)"><g><path d="M -0.125 -8.59375 C -0.125 -10.351562 0.34375 -11.890625 1.28125 -13.203125 C 2.226562 -14.515625 3.460938 -15.609375 4.984375 -16.484375 C 6.515625 -17.367188 8.269531 -18.03125 10.25 -18.46875 C 12.226562 -18.90625 14.242188 -19.125 16.296875 -19.125 C 17.429688 -19.125 18.40625 -19.101562 19.21875 -19.0625 C 20.03125 -19.019531 20.851562 -18.957031 21.6875 -18.875 L 21.6875 -20.0625 C 21.6875 -21.613281 21.082031 -22.773438 19.875 -23.546875 C 18.664062 -24.316406 17.078125 -24.703125 15.109375 -24.703125 C 13.316406 -24.703125 11.488281 -24.453125 9.625 -23.953125 C 7.757812 -23.453125 5.992188 -22.71875 4.328125 -21.75 L 1.640625 -26.953125 C 3.609375 -28.085938 5.71875 -28.976562 7.96875 -29.625 C 10.226562 -30.28125 12.609375 -30.609375 15.109375 -30.609375 C 16.734375 -30.609375 18.332031 -30.425781 19.90625 -30.0625 C 21.476562 -29.695312 22.890625 -29.097656 24.140625 -28.265625 C 25.398438 -27.429688 26.398438 -26.347656 27.140625 -25.015625 C 27.890625 -23.679688 28.265625 -22.03125 28.265625 -20.0625 L 28.265625 0 L 21.6875 0 L 21.6875 -4.390625 C 20.644531 -2.765625 19.097656 -1.503906 17.046875 -0.609375 C 15.003906 0.285156 12.8125 0.734375 10.46875 0.734375 C 9.007812 0.734375 7.628906 0.535156 6.328125 0.140625 C 5.035156 -0.253906 3.921875 -0.847656 2.984375 -1.640625 C 2.046875 -2.429688 1.289062 -3.410156 0.71875 -4.578125 C 0.15625 -5.742188 -0.125 -7.082031 -0.125 -8.59375 Z M 12.15625 -5.203125 C 13.46875 -5.203125 14.691406 -5.363281 15.828125 -5.6875 C 16.972656 -6.019531 17.984375 -6.476562 18.859375 -7.0625 C 19.742188 -7.65625 20.4375 -8.367188 20.9375 -9.203125 C 21.4375 -10.046875 21.6875 -10.96875 21.6875 -11.96875 L 21.6875 -13.09375 C 20.644531 -13.257812 19.660156 -13.351562 18.734375 -13.375 C 17.816406 -13.394531 17.003906 -13.40625 16.296875 -13.40625 C 13.046875 -13.40625 10.59375 -12.976562 8.9375 -12.125 C 7.28125 -11.269531 6.453125 -10.210938 6.453125 -8.953125 C 6.453125 -6.453125 8.351562 -5.203125 12.15625 -5.203125 Z M 12.15625 -5.203125 "/></g></g></g><g fill="#000000" fill-opacity="1"><g transform="translate(562.482831, 332.186182)"><g><path d="M 30.234375 -9.53125 C 29.890625 -6.382812 28.648438 -3.882812 26.515625 -2.03125 C 24.390625 -0.1875 21.734375 0.734375 18.546875 0.734375 C 16.796875 0.734375 15.191406 0.445312 13.734375 -0.125 C 12.273438 -0.707031 11.03125 -1.507812 10 -2.53125 C 8.976562 -3.5625 8.179688 -4.796875 7.609375 -6.234375 C 7.046875 -7.679688 6.765625 -9.257812 6.765625 -10.96875 L 6.765625 -23.90625 L 0 -23.90625 L 0 -29.90625 L 6.765625 -29.90625 L 6.765625 -41.875 L 13.40625 -41.875 L 13.40625 -29.90625 L 25.953125 -29.90625 L 25.953125 -23.90625 L 13.40625 -23.90625 L 13.40625 -10.96875 C 13.40625 -9.050781 13.875 -7.617188 14.8125 -6.671875 C 15.757812 -5.734375 17.003906 -5.265625 18.546875 -5.265625 C 20.429688 -5.265625 21.832031 -5.804688 22.75 -6.890625 C 23.664062 -7.984375 24.210938 -9.300781 24.390625 -10.84375 Z M 30.234375 -9.53125 "/></g></g></g><g fill="#000000" fill-opacity="1"><g transform="translate(598.352591, 332.186182)"><g><path d="M 6.09375 -12.421875 C 6.414062 -10.367188 7.394531 -8.660156 9.03125 -7.296875 C 10.664062 -5.941406 12.863281 -5.265625 15.625 -5.265625 C 17.789062 -5.265625 19.671875 -5.597656 21.265625 -6.265625 C 22.859375 -6.941406 24.226562 -7.835938 25.375 -8.953125 L 28.78125 -4.265625 C 26.851562 -2.335938 24.816406 -1.019531 22.671875 -0.3125 C 20.523438 0.382812 18.175781 0.734375 15.625 0.734375 C 13.3125 0.734375 11.160156 0.347656 9.171875 -0.421875 C 7.179688 -1.191406 5.457031 -2.265625 4 -3.640625 C 2.550781 -5.023438 1.414062 -6.664062 0.59375 -8.5625 C -0.226562 -10.46875 -0.640625 -12.585938 -0.640625 -14.921875 C -0.640625 -17.191406 -0.257812 -19.28125 0.5 -21.1875 C 1.257812 -23.101562 2.328125 -24.757812 3.703125 -26.15625 C 5.085938 -27.5625 6.738281 -28.65625 8.65625 -29.4375 C 10.582031 -30.21875 12.710938 -30.609375 15.046875 -30.609375 C 17.460938 -30.609375 19.65625 -30.195312 21.625 -29.375 C 23.59375 -28.550781 25.273438 -27.359375 26.671875 -25.796875 C 28.078125 -24.234375 29.175781 -22.320312 29.96875 -20.0625 C 30.757812 -17.8125 31.15625 -15.265625 31.15625 -12.421875 Z M 23.65625 -18.265625 C 23.3125 -20.179688 22.3125 -21.722656 20.65625 -22.890625 C 19.007812 -24.054688 17.140625 -24.640625 15.046875 -24.640625 C 12.953125 -24.640625 11.070312 -24.054688 9.40625 -22.890625 C 7.738281 -21.722656 6.734375 -20.179688 6.390625 -18.265625 Z M 23.65625 -18.265625 "/></g></g></g></svg>